<svg width="30" height="30" viewBox="0 0 30 30" fill="none" xmlns="http://www.w3.org/2000/svg">
<g clip-path="url(#clip0_374_89)">
<path d="M0 4.83635C0.0752016 4.6101 0.158842 4.39039 0.250522 4.17827C0.372308 3.91982 0.534116 3.70967 0.722016 3.56592C0.909916 3.42217 1.11828 3.34912 1.32916 3.35306H2.72095C2.881 3.35306 2.93667 3.29039 2.92971 3.03969C2.92971 2.50696 2.92971 1.99512 2.92971 1.45195C2.91594 1.25253 2.93245 1.05102 2.97802 0.862561C3.02358 0.674101 3.09701 0.503593 3.19278 0.363853C3.28856 0.224113 3.40419 0.118774 3.53098 0.0557537C3.65777 -0.00726653 3.79244 -0.0263292 3.92484 -1.68849e-06H11.9763C12.5546 -0.0265448 13.1276 0.173306 13.6388 0.579896C14.1501 0.986486 14.582 1.58581 14.8921 2.31894L14.9965 2.51741C15.3544 1.60858 15.8852 0.881066 16.5205 0.428271C16.9376 0.14211 17.3912 -0.00404535 17.8497 -1.68849e-06H26.103C26.2281 -0.0138686 26.3538 0.0127428 26.4715 0.0780346C26.5892 0.143326 26.6962 0.245778 26.7852 0.378466C26.8743 0.511155 26.9434 0.67099 26.9877 0.847173C27.0321 1.02336 27.0508 1.21178 27.0424 1.39972C27.0424 1.9429 27.0424 2.44429 27.0424 3.0188C27.0424 3.31128 27.1051 3.36351 27.2791 3.35306C27.7244 3.35306 28.1768 3.35306 28.6221 3.35306C28.8075 3.33799 28.993 3.3817 29.1664 3.48135C29.3398 3.58101 29.4973 3.73437 29.6286 3.93146C29.7599 4.12854 29.8621 4.36493 29.9285 4.62522C29.9948 4.88552 30.024 5.16389 30.0139 5.4422C30.0139 12.9004 30.0139 20.3586 30.0139 27.8169C30.0232 28.1108 29.9909 28.4044 29.9193 28.6784C29.8477 28.9523 29.7384 29.2005 29.5985 29.4066C29.4585 29.6127 29.2911 29.7721 29.1073 29.8744C28.9235 29.9767 28.7273 30.0195 28.5317 30C25.7481 30 22.9645 30 20.1809 30C14.0153 30 7.84737 30 1.67711 30C1.32404 30.0771 0.964085 29.9683 0.658373 29.6922C0.352661 29.4161 0.120036 28.9897 0 28.4854L0 4.83635Z" fill="#010101"/>
<path d="M15.4836 26.9812C15.421 26.8663 15.4488 26.7514 15.4488 26.6365V5.22284C15.42 4.3474 15.6005 3.48531 15.9578 2.79199C16.315 2.09867 16.8256 1.61973 17.3973 1.44151C17.6257 1.36463 17.8591 1.32609 18.0932 1.3266C20.6819 1.3266 23.2637 1.3266 25.8524 1.3266C26.1099 1.3266 26.1447 1.45195 26.1447 1.79666C26.1447 6.39972 26.1447 10.9993 26.1447 15.5954C26.1447 16.1699 26.256 16.4624 26.4996 16.5355C26.5564 16.5586 26.6157 16.5638 26.6739 16.5507C26.732 16.5376 26.7877 16.5065 26.8374 16.4593C26.8872 16.4122 26.9298 16.35 26.9627 16.2768C26.9956 16.2036 27.018 16.121 27.0285 16.0341C27.0422 15.8746 27.0422 15.7131 27.0285 15.5536C27.0285 12.0752 27.0285 8.60724 27.0285 5.10794C27.0285 4.76323 27.0841 4.65878 27.3207 4.66922C27.7244 4.66922 28.1349 4.66922 28.5455 4.66922C28.9561 4.66922 29.1022 4.90947 29.1022 5.49443C29.1022 12.9457 29.1022 20.3865 29.1022 27.8169C29.1022 28.3705 28.9422 28.6212 28.6012 28.6212H15.8663H15.7689C16.0386 28.0125 16.3863 27.4905 16.7919 27.0857C17.498 26.3722 18.3348 26.007 19.1857 26.0411H26.0125C26.7084 26.0411 27.0424 25.5606 27.0424 24.4951V19.2723C27.053 19.0957 27.0388 18.9178 27.0006 18.75C26.9739 18.6151 26.9172 18.498 26.84 18.4182C26.7627 18.3384 26.6696 18.3007 26.5761 18.3113C26.4873 18.3089 26.4002 18.3491 26.3276 18.4261C26.255 18.5032 26.2007 18.613 26.1725 18.7396C26.1382 18.905 26.1241 19.0784 26.1308 19.2514C26.1308 20.954 26.1308 22.6567 26.1308 24.3489C26.1308 24.6727 26.0751 24.7354 25.8733 24.7354C23.6673 24.7354 21.4613 24.7354 19.2553 24.7354C18.5673 24.7032 17.8823 24.8841 17.2429 25.2669C16.6036 25.6497 16.0236 26.2262 15.5393 26.9603L15.4836 26.9812Z" fill="white"/>
<path d="M14.5372 27.0543C14.0308 26.2679 13.4193 25.6511 12.7429 25.2442C12.0665 24.8374 11.3405 24.6497 10.6124 24.6936C8.44813 24.6936 6.2839 24.6936 4.11271 24.6936C3.89002 24.6936 3.84827 24.5996 3.84827 24.2862C3.84827 16.7653 3.84827 9.24792 3.84827 1.73399C3.84827 1.39973 3.89698 1.29527 4.13358 1.29527C6.72927 1.29527 9.32495 1.29527 11.9206 1.29527C12.5201 1.24841 13.1107 1.52802 13.5837 2.08266C14.0568 2.63731 14.3806 3.42969 14.4954 4.31407C14.5269 4.59002 14.5409 4.86982 14.5372 5.14973V27.0543Z" fill="white"/>
<path d="M14.2171 28.663H1.51009C1.01601 28.663 0.876831 28.4645 0.876831 27.7333V5.63023C0.876831 4.90948 1.01601 4.70056 1.50314 4.70056H2.78358C2.92276 4.70056 2.97843 4.76324 2.96451 4.97215C2.96103 5.07306 2.96103 5.17417 2.96451 5.27507C2.96451 11.6678 2.96451 18.0536 2.96451 24.4325C2.94574 24.6885 2.9696 24.9476 3.03398 25.1865C3.09835 25.4253 3.20121 25.6364 3.33334 25.8008C3.52445 25.9798 3.74919 26.0605 3.97356 26.0306H10.8212C11.4711 25.9991 12.1164 26.2061 12.701 26.6339C13.2855 27.0617 13.7916 27.6973 14.1754 28.4854C14.1921 28.543 14.2061 28.6023 14.2171 28.663Z" fill="white"/>
<path d="M20.7585 6.0585H17.3973C17.2791 6.07534 17.16 6.05029 17.0494 5.98538C16.9616 5.9349 16.8878 5.84143 16.8398 5.72011C16.7918 5.59879 16.7725 5.4567 16.785 5.31686C16.7887 5.17664 16.8247 5.0427 16.8869 4.93792C16.9491 4.83314 17.0336 4.76401 17.1259 4.74235C17.2417 4.72643 17.3581 4.72643 17.4739 4.74235H24.1684C24.6346 4.74235 24.8643 4.96171 24.8643 5.41087C24.8643 5.86003 24.6416 6.10028 24.1684 6.10028L20.7585 6.0585Z" fill="#9E197E"/>
<path d="M20.7585 10.007H17.3973C17.2797 10.0283 17.1603 10.0068 17.0494 9.94429C16.9623 9.89228 16.8892 9.79851 16.8414 9.67758C16.7935 9.55666 16.7737 9.41538 16.7849 9.27576C16.7873 9.13493 16.8229 8.99991 16.8853 8.89472C16.9477 8.78953 17.033 8.72098 17.1259 8.70125C17.2415 8.68015 17.3583 8.68015 17.4739 8.70125H24.1684C24.6346 8.70125 24.8643 8.91017 24.8643 9.36978C24.8643 9.82939 24.6416 10.0487 24.1684 10.0487L20.7585 10.007Z" fill="#9E197E"/>
<path d="M20.7794 13.9659H17.3556C17.2522 13.9966 17.1458 13.9966 17.0424 13.9659C16.9483 13.9166 16.8685 13.82 16.8165 13.6924C16.7645 13.5648 16.7435 13.4142 16.7571 13.266C16.7627 13.1261 16.8004 12.9934 16.8638 12.8905C16.9273 12.7877 17.0125 12.721 17.105 12.7019C17.2115 12.6864 17.3187 12.6864 17.4251 12.7019H24.238C24.6207 12.7019 24.8295 12.9631 24.8295 13.3914C24.8295 13.8196 24.6137 14.0599 24.231 14.0599L20.7794 13.9659Z" fill="#9E197E"/>
<path d="M20.7934 17.9248H17.3974C17.2694 17.9448 17.1402 17.916 17.0216 17.8412C16.9409 17.7851 16.874 17.6925 16.8303 17.5763C16.7866 17.4601 16.7684 17.3262 16.778 17.1936C16.7799 17.0531 16.8142 16.9179 16.8751 16.8111C16.9361 16.7044 17.0198 16.6328 17.1121 16.6086C17.2278 16.5927 17.3443 16.5927 17.46 16.6086H24.1545C24.6208 16.6086 24.8504 16.8175 24.8504 17.2667C24.8504 17.7159 24.6347 17.9666 24.1545 17.9666L20.7934 17.9248Z" fill="#9E197E"/>
<path d="M20.7515 21.9359H17.3973C17.2814 21.9548 17.1641 21.9297 17.0563 21.8628C16.9693 21.8108 16.8961 21.717 16.8483 21.5961C16.8005 21.4752 16.7806 21.3339 16.7919 21.1943C16.7956 21.0541 16.8316 20.9201 16.8938 20.8153C16.956 20.7106 17.0405 20.6414 17.1329 20.6198C17.2393 20.6043 17.3465 20.6043 17.453 20.6198H24.1475C24.6068 20.6198 24.8434 20.8391 24.8434 21.2987C24.8434 21.7584 24.6207 21.9777 24.1475 21.9777L20.7515 21.9359Z" fill="#9E197E"/>
<path d="M9.19977 6.0585H5.7203C5.57325 6.08016 5.42573 6.0248 5.30277 5.90181C5.2398 5.83215 5.19089 5.73774 5.16141 5.62898C5.13194 5.52023 5.12306 5.40137 5.13575 5.28552C5.144 5.16177 5.17699 5.04466 5.2304 4.94958C5.2838 4.8545 5.35512 4.7859 5.43499 4.75279C5.55056 4.73218 5.66736 4.73218 5.78293 4.75279H12.6584C12.9994 4.75279 13.1942 5.01393 13.2012 5.41086C13.2081 5.8078 12.9994 6.10028 12.6514 6.11073L9.19977 6.0585Z" fill="#9E197E"/>
<path d="M9.18585 10.007H5.76205C5.6461 10.0259 5.52885 10.0007 5.42107 9.93385C5.33695 9.87738 5.26682 9.78257 5.22064 9.66287C5.17447 9.54318 5.15459 9.40469 5.16383 9.26707C5.17308 9.12945 5.21098 8.99971 5.27214 8.89626C5.33331 8.79281 5.41464 8.72093 5.50457 8.69081C5.61102 8.67523 5.71823 8.67523 5.82468 8.69081H12.6097C13.0202 8.69081 13.236 8.93106 13.229 9.36978C13.222 9.8085 13.0133 10.0383 12.6027 10.0383L9.18585 10.007Z" fill="#9E197E"/>
<path d="M9.18575 13.9659H5.76195C5.65857 13.9966 5.55218 13.9966 5.4488 13.9659C5.35394 13.9183 5.2733 13.8221 5.22111 13.694C5.16891 13.566 5.1485 13.4144 5.16348 13.266C5.16905 13.1261 5.20678 12.9934 5.27022 12.8905C5.33367 12.7877 5.41891 12.721 5.51143 12.7019C5.61787 12.686 5.7251 12.686 5.83154 12.7019H12.6443C13.0271 12.7019 13.2359 12.9631 13.2289 13.3914C13.2219 13.8196 13.0132 14.0599 12.6304 14.0599L9.18575 13.9659Z" fill="#9E197E"/>
<path d="M9.16492 17.9248H5.76895C5.653 17.9437 5.53575 17.9186 5.42796 17.8517C5.34074 17.8032 5.26708 17.7116 5.21904 17.5921C5.171 17.4725 5.15142 17.332 5.16352 17.1936C5.16664 17.0536 5.20142 16.9194 5.26214 16.8131C5.32285 16.7068 5.40588 16.6347 5.49755 16.6086C5.61332 16.5935 5.72974 16.5935 5.8455 16.6086H12.5261C12.9854 16.6086 13.222 16.828 13.222 17.2772C13.222 17.7263 13.0063 17.9666 12.5261 17.9666L9.16492 17.9248Z" fill="#9E197E"/>
<path d="M9.19973 21.9359H5.78289C5.65494 21.9559 5.5257 21.9272 5.4071 21.8524C5.32644 21.7963 5.25954 21.7036 5.21585 21.5874C5.17215 21.4712 5.15385 21.3374 5.16354 21.2047C5.16631 21.0662 5.2001 20.9332 5.25944 20.827C5.31878 20.7209 5.40022 20.6479 5.49061 20.6198C5.59706 20.6043 5.70427 20.6043 5.81072 20.6198H12.6792C13.0341 20.6198 13.2429 20.9123 13.229 21.3196C13.215 21.727 13.0132 21.9673 12.6792 21.9673L9.19973 21.9359Z" fill="#9E197E"/>
</g>
<defs>
<clipPath id="clip0_374_89">
<rect width="30" height="30" fill="white"/>
</clipPath>
</defs>
</svg>
