<svg width="30" height="30" viewBox="0 0 30 30" fill="none" xmlns="http://www.w3.org/2000/svg">
<g clip-path="url(#clip0_369_60)">
<path d="M15.0185 0.00738906H29.6232C29.9187 0.00738906 30.0222 0.0739081 30 0.384329C30 0.857352 30 1.33038 30 1.79601C30 1.98078 29.9483 2.0473 29.7562 2.03991C29.5642 2.03252 29.1874 1.92905 29.0692 2.08426C28.951 2.23947 29.0249 2.57206 29.0249 2.82335C29.0249 9.47524 29.0249 16.1863 29.0249 22.8677C29.0436 23.548 28.8362 24.2154 28.4351 24.7651C28.0341 25.3148 27.462 25.7159 26.8087 25.9054C26.5549 25.9693 26.2946 26.0041 26.033 26.0089H19.9754C19.7242 26.0089 19.6651 25.9424 19.6799 25.6985C19.6799 25.2328 19.6799 24.7598 19.6799 24.2868C19.6799 24.0429 19.7316 23.9763 19.9828 23.9763C21.9109 23.9763 23.8463 23.9763 25.7744 23.9763C26.6314 23.9763 26.986 23.6142 26.986 22.7568C26.986 15.9621 26.986 9.17221 26.986 2.38729C26.986 2.11382 26.949 2.01774 26.6388 2.02513H3.34647C3.06575 2.02513 3.02143 2.10643 3.02143 2.36511C3.02143 4.48633 3.02143 6.60015 3.02143 8.72136C3.02143 8.96526 2.95494 9.03178 2.71116 9.017C2.23837 9.017 1.76558 9.017 1.30018 9.017C1.03423 9.017 0.997298 8.94309 0.997298 8.70658C0.997298 6.59276 0.997298 4.47154 0.997298 2.35772C0.997298 2.06947 0.916036 2.01774 0.650091 2.02513C-0.0147694 2.02513 -0.0147705 2.02513 -0.0147705 1.36733C-0.0147705 1.02734 -0.0147705 0.68736 -0.0147705 0.347375C-0.0147705 0.00738978 0.0369402 -0.00739307 0.325047 -2.09117e-06C1.49225 -2.09117e-06 2.66684 -2.09117e-06 3.84142 -2.09117e-06L15.0185 0.00738906Z" fill="#06111A"/>
<path d="M6.00596 30H1.2042C1.04244 30.0207 0.878081 30.0039 0.723833 29.951C0.569585 29.898 0.429575 29.8103 0.314619 29.6945C0.199662 29.5788 0.11284 29.4382 0.060859 29.2836C0.00887797 29.1289 -0.00686977 28.9644 0.0148346 28.8027C0.0148346 27.2456 0.0148346 25.6861 0.0148346 24.1242C-0.0172327 23.1513 0.306482 22.2002 0.925284 21.4491C1.54409 20.698 2.41548 20.1985 3.37607 20.0443C3.66985 20.0049 3.96618 19.9876 4.26256 19.9926C5.42237 19.9926 6.58957 20.0443 7.74938 19.9483C8.58202 19.8284 9.40437 19.6456 10.2094 19.4013C12.0045 18.9653 13.7996 18.4996 15.6021 18.0488C15.8523 17.9554 16.129 17.9626 16.374 18.0686C16.6191 18.1747 16.8137 18.3715 16.9171 18.6179C17.3503 19.3146 17.4924 20.1537 17.3128 20.9543C17.1331 21.7549 16.6461 22.4527 15.9567 22.8973C14.8708 23.6364 13.7848 24.3755 12.6767 25.1146C12.4573 25.2359 12.2782 25.4188 12.1614 25.6408C12.0446 25.8627 11.9952 26.114 12.0193 26.3636C12.0193 27.184 12.0193 28.0118 12.0193 28.8322C12.0417 28.997 12.0255 29.1648 11.972 29.3222C11.9184 29.4796 11.829 29.6224 11.7107 29.7393C11.5925 29.8562 11.4486 29.9439 11.2906 29.9956C11.1326 30.0473 10.9648 30.0614 10.8004 30.037L6.00596 30Z" fill="#06111A"/>
<path d="M10.5565 14.5085C10.5565 15.3968 10.2937 16.2653 9.80127 17.0045C9.30886 17.7437 8.60883 18.3206 7.78935 18.6626C6.96986 19.0045 6.06756 19.0962 5.19609 18.9261C4.32463 18.756 3.52296 18.3317 2.89205 17.7066C2.26114 17.0816 1.8292 16.2837 1.65064 15.4135C1.47207 14.5433 1.55486 13.6397 1.88859 12.8165C2.22231 11.9933 2.79204 11.2873 3.52603 10.7874C4.26001 10.2876 5.12543 10.0161 6.01329 10.0074C7.21176 10.0035 8.36292 10.475 9.21451 11.3187C10.0661 12.1624 10.5487 13.3095 10.5565 14.5085Z" fill="#06111A"/>
<path d="M19.0076 11.9882H24.6959C24.9397 11.9882 25.0431 11.9882 25.0283 12.306C25.0283 12.7864 25.0283 13.2668 25.0283 13.7472C25.0283 13.932 25.0283 14.0207 24.7846 14.0207H13.2529C13.0387 14.0207 12.9943 13.9542 13.0017 13.7546C13.0017 13.2668 13.0017 12.7716 13.0017 12.2764C13.0017 12.0399 13.0756 11.9808 13.2972 11.9882H19.0076Z" fill="#9E197E"/>
<path d="M17.0056 9.0096H13.3119C13.0903 9.0096 13.0091 9.0096 13.0164 8.72874C13.0164 8.24094 13.0164 7.74574 13.0164 7.25055C13.0164 7.08055 13.0164 6.99186 13.2455 6.99925H20.8101C20.9652 6.99925 21.0169 6.99925 21.0096 7.19881C21.0096 7.71618 21.0096 8.23355 21.0096 8.74352C21.0096 8.97265 20.9431 9.0096 20.7362 9.0096H17.0056Z" fill="#9E197E"/>
<path d="M5.99115 27.9749C4.77224 27.9749 3.55333 27.9749 2.3418 27.9749C2.10541 27.9749 2.02414 27.9379 2.03153 27.6792C2.03153 26.4819 2.03153 25.2845 2.03153 24.0946C2.01454 23.8174 2.05623 23.5397 2.15387 23.2797C2.2515 23.0197 2.40289 22.7833 2.59813 22.5859C2.79337 22.3884 3.02807 22.2345 3.28687 22.134C3.54567 22.0336 3.82275 21.9889 4.09999 22.003C5.20809 22.003 6.31619 22.003 7.4169 22.003C8.4535 21.9402 9.47832 21.749 10.4679 21.4338C12.034 21.0569 13.5927 20.6947 15.1588 20.2587C15.4026 20.1922 15.4174 20.2587 15.3952 20.4582C15.3732 20.6097 15.3181 20.7544 15.2338 20.8822C15.1496 21.0099 15.0382 21.1175 14.9077 21.1973C13.7331 21.9734 12.5659 22.7642 11.3913 23.5477C10.9612 23.8232 10.6086 24.2041 10.3668 24.6543C10.125 25.1044 10.0022 25.6088 10.0099 26.1197C10.0099 26.6593 10.0099 27.1988 10.0099 27.731C10.0099 27.9379 9.96554 27.9896 9.75869 27.9896C8.51023 27.9675 7.247 27.9749 5.99115 27.9749Z" fill="white"/>
<path d="M6.03549 16.9919C5.54496 16.9845 5.0676 16.8319 4.6637 16.5533C4.2598 16.2747 3.94748 15.8826 3.76618 15.4265C3.58487 14.9705 3.54272 14.4708 3.64505 13.9908C3.74737 13.5108 3.98958 13.0718 4.34109 12.7294C4.69259 12.387 5.13763 12.1565 5.61999 12.067C6.10235 11.9775 6.60041 12.0331 7.05125 12.2266C7.5021 12.4201 7.88552 12.743 8.15309 13.1544C8.42065 13.5658 8.56037 14.0473 8.55458 14.5381C8.54292 15.1968 8.27167 15.8242 7.79987 16.2837C7.32808 16.7433 6.69394 16.9978 6.03549 16.9919Z" fill="white"/>
</g>
<defs>
<clipPath id="clip0_369_60">
<rect width="30" height="30" fill="white"/>
</clipPath>
</defs>
</svg>
