<svg width="30" height="30" viewBox="0 0 30 30" fill="none" xmlns="http://www.w3.org/2000/svg">
<g clip-path="url(#clip0_371_68)">
<path d="M13.0805 29.0288C10.5283 29.0288 7.98047 28.9986 5.43261 29.0288C5.09717 29.0346 4.76399 28.9729 4.45299 28.8471C4.14198 28.7214 3.85952 28.5342 3.6225 28.2969C3.38547 28.0596 3.19874 27.7769 3.07347 27.4658C2.9482 27.1548 2.88695 26.8216 2.89338 26.4863C2.93657 25.1266 2.89338 23.7669 2.89338 22.4072C2.90677 22.336 2.89518 22.2623 2.86057 22.1986C2.82596 22.1349 2.77044 22.0851 2.70337 22.0576C2.50461 21.9514 2.34442 21.7852 2.24562 21.5827C1.52013 20.1151 0.793195 18.6561 0.0648228 17.2058C0.0160211 17.0959 -0.006172 16.9761 4.66511e-05 16.8561V2.8964C-0.00222874 2.51722 0.070452 2.14132 0.213915 1.7903C0.357379 1.43927 0.568799 1.12003 0.836036 0.850902C1.10327 0.581775 1.42106 0.368064 1.77116 0.222041C2.12125 0.0760185 2.49676 0.000559732 2.87611 -1.94274e-06C3.43015 -0.0397686 3.98697 -0.0122294 4.53438 0.0820124C4.96057 0.179519 5.35813 0.375041 5.69547 0.653042C6.03281 0.931042 6.30064 1.28386 6.47766 1.68345C6.5063 1.77194 6.56541 1.8474 6.64449 1.89641C6.72357 1.94542 6.81748 1.96479 6.9095 1.95108H24.5891C25.1731 1.92594 25.7463 2.11465 26.201 2.4818C26.6558 2.84895 26.9609 3.36932 27.0592 3.94532C27.0866 4.11363 27.0967 4.2843 27.0894 4.45467C27.0894 7.49065 27.0894 10.5223 27.0894 13.5496C27.0844 13.6383 27.0992 13.7269 27.1328 13.809C27.1665 13.8912 27.218 13.9648 27.2838 14.0245C27.6724 14.3914 28.0481 14.7712 28.4195 15.1511C29.0441 15.7633 29.508 16.5201 29.7701 17.3543C30.0322 18.1886 30.0845 19.0746 29.9223 19.9338C29.6762 21.4576 29.4041 22.9813 29.1493 24.505C28.9251 25.5119 28.5966 26.4928 28.169 27.4317C28.0998 27.6075 28.0661 27.7953 28.0697 27.9842C28.0697 28.5885 28.0697 29.1928 28.0697 29.7971C28.0697 29.9525 28.0352 30 27.8711 30C25.7464 30 23.6203 30 21.4928 30C21.3373 30 21.2855 29.9612 21.2898 29.8014C21.2898 29.5511 21.4021 29.2187 21.2509 29.0763C21.0998 28.9338 20.7543 29.0288 20.4952 29.0288C18.0165 29.0245 15.5463 29.0288 13.0805 29.0288Z" fill="#06111A"/>
<path d="M24.1486 18.6C24.0623 18.2676 23.9845 17.9309 23.8852 17.5986C23.7843 17.253 23.5693 16.9519 23.2752 16.7442C22.9811 16.5364 22.6253 16.4344 22.2658 16.4547C21.9223 16.4685 21.5922 16.5914 21.3235 16.8057C21.0547 17.02 20.8614 17.3144 20.7716 17.646C20.6874 18.1005 20.6398 18.561 20.6291 19.023C20.5428 20.0158 20.4607 21.0086 20.4046 22.0014C20.4046 22.2518 20.2923 22.2604 20.098 22.2604H13.9917C11.3618 22.2604 8.7319 22.2604 6.10199 22.2604C5.84288 22.2604 5.79538 22.187 5.7997 21.9453C5.7997 21.0388 5.7997 20.1324 5.7997 19.2259C5.79755 19.0756 5.83319 18.9272 5.90334 18.7942C6.2464 18.2538 6.52332 17.6741 6.72816 17.0676C6.81653 16.4181 6.83101 15.7607 6.77134 15.1079C6.77134 12.4403 6.77134 9.77122 6.77134 7.10071C6.77134 6.85467 6.80589 6.76834 7.08658 6.76834C12.6919 6.76834 18.2943 6.76834 23.8938 6.76834C24.0666 6.76834 24.2004 6.73812 24.2004 7.01438C24.2004 10.8216 24.2004 14.6288 24.2004 18.436C24.2004 18.4834 24.2004 18.5309 24.2004 18.5827L24.1486 18.6Z" fill="white"/>
<path d="M15.8443 2.91799H24.4811C25.5607 2.91799 26.1437 3.50072 26.1437 4.57123V21.613C26.1592 21.744 26.1444 21.8769 26.1005 22.0014C26.0764 22.0685 26.0341 22.1276 25.9783 22.172C25.9225 22.2164 25.8555 22.2445 25.7847 22.253C25.7139 22.2615 25.6421 22.2502 25.5774 22.2202C25.5126 22.1903 25.4575 22.1429 25.4182 22.0835C25.2618 21.8736 25.1757 21.6199 25.172 21.3583C25.172 16.5626 25.172 11.7669 25.172 6.97554C25.1828 6.8199 25.1602 6.66375 25.1057 6.51754C25.0513 6.37133 24.9662 6.23842 24.8562 6.12769C24.7463 6.01697 24.614 5.93097 24.4681 5.87545C24.3222 5.81994 24.1662 5.79618 24.0104 5.80576C18.3965 5.82734 12.7437 5.80576 7.11245 5.80576C6.83607 5.80576 6.76266 5.74101 6.7713 5.46907C6.79289 4.70072 6.7713 3.93669 6.7713 3.17267C6.7713 2.94389 6.82743 2.89209 7.05199 2.89209C9.98275 2.91223 12.9135 2.92087 15.8443 2.91799Z" fill="white"/>
<path d="M4.83667 21.0561V22.1741C4.82264 22.3149 4.83999 22.4571 4.88748 22.5905C4.93497 22.7238 5.01143 22.845 5.11135 22.9453C5.21127 23.0456 5.33217 23.1225 5.46538 23.1705C5.59858 23.2185 5.74077 23.2365 5.88173 23.223C10.5802 23.223 15.2771 23.223 19.9727 23.223C20.262 23.223 20.3354 23.2835 20.3268 23.577C20.3181 24.8542 20.5878 26.118 21.1171 27.2806C21.1737 27.3987 21.2242 27.5198 21.2682 27.6432C21.3675 27.9755 21.3028 28.0748 20.953 28.0748H5.56217C4.44802 28.0576 3.88662 27.4878 3.88662 26.3741C3.88662 25.036 3.88662 23.7151 3.88662 22.3856C3.87493 22.319 3.8866 22.2504 3.91964 22.1915C3.95269 22.1325 4.00509 22.0867 4.068 22.0619C4.28325 21.9456 4.4546 21.7622 4.55598 21.5396L4.80644 21.0432L4.83667 21.0561Z" fill="white"/>
<path d="M27.0895 15.2374C27.937 15.8971 28.5611 16.8012 28.8773 17.8273C29.0392 18.5668 29.0392 19.3325 28.8773 20.0719C28.6355 21.4647 28.398 22.859 28.1648 24.2547C27.9634 25.1851 27.6623 26.091 27.2666 26.9568C27.2553 26.9989 27.2286 27.0351 27.1918 27.0584C27.1549 27.0816 27.1107 27.09 27.0679 27.082C25.4528 27.082 23.8421 27.082 22.227 27.082C22.1017 27.082 22.0629 27.0216 22.0197 26.9223C21.3729 25.453 21.1371 23.8359 21.3374 22.2432C21.4669 21.0518 21.5317 19.8561 21.6267 18.6604C21.6267 18.4619 21.6613 18.259 21.6785 18.0604C21.6819 17.8985 21.7443 17.7433 21.854 17.624C21.9637 17.5048 22.1133 17.4297 22.2745 17.413C22.4374 17.4028 22.5984 17.4524 22.7272 17.5526C22.8561 17.6527 22.9438 17.7965 22.9741 17.9568C23.1425 18.6086 23.2893 19.2518 23.4707 19.9079C23.7148 20.8046 24.0535 21.6727 24.4812 22.4978C24.6126 22.7536 24.8217 22.9612 25.0785 23.0907C25.3354 23.2203 25.6267 23.2651 25.9106 23.2187C26.186 23.1782 26.4429 23.0562 26.6484 22.8685C26.8539 22.6808 26.9985 22.436 27.0636 22.1655C27.0898 22.0232 27.0999 21.8784 27.0938 21.7338C27.0938 19.636 27.0938 17.5424 27.0938 15.4446L27.0895 15.2374Z" fill="white"/>
<path d="M3.38567 3.88489C2.65154 3.88489 1.91741 3.88489 1.17896 3.88489C1.01054 3.88489 0.954404 3.84173 0.96736 3.66907C0.956451 3.31751 0.969436 2.96562 1.00623 2.61583C1.06537 2.19447 1.26594 1.80568 1.57506 1.51316C1.88418 1.22064 2.28353 1.04173 2.70768 1.00576C3.19708 0.930251 3.69517 0.930251 4.18458 1.00576C4.63583 1.07582 5.04713 1.30494 5.34413 1.65168C5.64113 1.99843 5.80424 2.43993 5.80398 2.8964C5.80398 3.2072 5.91194 3.61295 5.7608 3.79856C5.60965 3.98417 5.18213 3.88489 4.86688 3.88489C4.37459 3.88489 3.88661 3.88489 3.38567 3.88489Z" fill="white"/>
<path d="M1.9347 10.6835C1.9347 12.518 1.9347 14.3482 1.9347 16.1827C1.9347 16.4072 1.88288 16.4676 1.654 16.4633C0.95874 16.4633 0.95874 16.4633 0.95874 15.7597C0.95874 12.2259 0.95874 8.69065 0.95874 5.15396C0.95874 4.9036 1.01488 4.83454 1.26535 4.84317C1.93038 4.84317 1.93038 4.84317 1.93038 5.51655L1.9347 10.6835Z" fill="white"/>
<path d="M2.90198 10.6532C2.90198 8.81008 2.90198 6.96691 2.90198 5.12374C2.90198 4.89928 2.9538 4.83885 3.17836 4.84317C3.88658 4.85612 3.88658 4.84749 3.88658 5.54677C3.88658 9.08346 3.88658 12.6187 3.88658 16.1525C3.88658 16.4029 3.83044 16.4676 3.57565 16.4633C2.91061 16.4633 2.91061 16.4633 2.91061 15.7899L2.90198 10.6532Z" fill="white"/>
<path d="M4.83672 10.6532C4.83672 8.81007 4.83672 6.96691 4.83672 5.12374C4.83672 4.89497 4.88854 4.83885 5.11741 4.84317C5.80836 4.84317 5.80836 4.84317 5.80836 5.54676C5.80836 9.08058 5.80836 12.6158 5.80836 16.1525C5.80836 16.4029 5.75222 16.4676 5.49743 16.4633C4.8324 16.4633 4.8324 16.4633 4.8324 15.7899L4.83672 10.6532Z" fill="white"/>
<path d="M1.29553 17.4345H5.50166L5.23824 17.9611L3.73543 20.9827C3.66202 21.1338 3.58429 21.2806 3.38996 21.2763C3.19563 21.2719 3.14381 21.1381 3.0704 20.9957C2.47446 19.8129 1.88715 18.6388 1.29553 17.4345Z" fill="#9E197E"/>
<path d="M24.6711 28.0576C25.4096 28.0576 26.1437 28.0576 26.8778 28.0576C27.0505 28.0576 27.0937 28.1007 27.0937 28.2734C27.0937 29.0288 27.0937 29.0288 26.3639 29.0288C25.0684 29.0288 23.7729 29.0288 22.4774 29.0288C22.283 29.0288 22.2312 28.9813 22.2312 28.7827C22.2312 28.0576 22.2312 28.0576 22.961 28.0576H24.6711Z" fill="#9E197E"/>
<path d="M16.1466 19.8561C15.0151 19.8561 13.888 19.8561 12.7609 19.8561C12.6895 19.8446 12.6165 19.8611 12.5569 19.9021C12.4974 19.9431 12.456 20.0055 12.4414 20.0763C12.3027 20.4415 12.0562 20.7559 11.7346 20.9778C11.413 21.1997 11.0314 21.3186 10.6406 21.3186C10.2498 21.3186 9.86821 21.1997 9.54657 20.9778C9.22493 20.7559 8.97843 20.4415 8.8398 20.0763C8.8234 20.0111 8.78344 19.9543 8.72762 19.9168C8.6718 19.8794 8.60408 19.8639 8.53752 19.8734C8.02363 19.8734 7.50973 19.8734 6.99584 19.8734C6.84038 19.8734 6.77129 19.8734 6.76697 19.6705C6.76697 18.9022 6.76697 18.9022 7.51837 18.9022C7.85953 18.9022 8.205 18.9022 8.54615 18.9022C8.71889 18.9022 8.77935 18.846 8.8398 18.6907C8.97665 18.3207 9.22509 18.0024 9.55077 17.7797C9.87646 17.557 10.2633 17.4409 10.6579 17.4475C11.0473 17.4449 11.4279 17.5631 11.7473 17.7857C12.0667 18.0084 12.3092 18.3245 12.4414 18.6907C12.4589 18.761 12.5025 18.8221 12.5635 18.8614C12.6245 18.9007 12.6982 18.9153 12.7696 18.9022C15.0238 18.9022 17.278 18.9022 19.5365 18.9022C19.7913 18.9022 19.8474 18.9669 19.8431 19.213C19.8215 19.8561 19.8345 19.8561 19.1651 19.8561H16.1466Z" fill="#06111A"/>
<path d="M14.972 4.85179C14.1083 4.85179 13.2187 4.85179 12.3421 4.85179C12.1521 4.85179 12.0873 4.81726 12.0873 4.61007C12.0916 3.88489 12.0916 3.88489 12.8171 3.88489C14.4192 3.88489 16.0214 3.88489 17.6235 3.88489C17.8394 3.88489 17.9128 3.92374 17.9085 4.16115C17.9085 4.86043 17.9085 4.86043 17.2089 4.86043L14.972 4.85179Z" fill="#9E197E"/>
<path d="M15.0108 24.1942H18.2453C18.4121 24.1745 18.5812 24.1964 18.7375 24.2581C18.8937 24.3198 19.0322 24.4193 19.1405 24.5476C19.2487 24.676 19.3235 24.8292 19.3579 24.9935C19.3924 25.1579 19.3855 25.3282 19.3379 25.4892C19.2572 25.9434 19.0182 26.3543 18.6632 26.649C18.3083 26.9438 17.8603 27.1033 17.3989 27.0993H12.5623C12.3081 27.0999 12.0564 27.0499 11.8218 26.9521C11.5872 26.8544 11.3744 26.7109 11.1959 26.5301C11.0174 26.3493 10.8768 26.1347 10.7821 25.8989C10.6875 25.6631 10.6409 25.4108 10.6449 25.1568C10.6432 25.0314 10.6665 24.907 10.7136 24.7907C10.7607 24.6745 10.8305 24.5688 10.919 24.48C11.0075 24.3911 11.1129 24.3208 11.229 24.2732C11.3451 24.2256 11.4695 24.2017 11.5949 24.2029L15.0108 24.1942Z" fill="#9E197E"/>
<path d="M11.6123 12.0863C11.6123 11.2489 11.6382 10.4115 11.6123 9.57841C11.5909 9.43683 11.6117 9.29209 11.672 9.16223C11.7323 9.03236 11.8296 8.92311 11.9516 8.84809C12.0736 8.77308 12.215 8.73561 12.3582 8.74036C12.5013 8.74511 12.6399 8.79187 12.7567 8.87481C14.4841 9.85467 16.2805 10.787 18.0467 11.7367C18.2065 11.823 18.3879 11.8964 18.3836 12.1165C18.3793 12.3367 18.2108 12.3928 18.0597 12.4748L12.7265 15.3324C12.1003 15.6691 11.6123 15.3712 11.6123 14.646C11.608 13.8129 11.6123 12.9496 11.6123 12.0863Z" fill="#9E197E"/>
<path d="M9.67765 19.364C9.67594 19.1722 9.73132 18.9843 9.83676 18.8241C9.9422 18.6638 10.0929 18.5386 10.2698 18.4642C10.4466 18.3898 10.6416 18.3697 10.8299 18.4063C11.0183 18.443 11.1914 18.5348 11.3274 18.6702C11.4634 18.8055 11.556 18.9781 11.5936 19.1662C11.6311 19.3543 11.6118 19.5493 11.5382 19.7264C11.4646 19.9035 11.34 20.0547 11.1801 20.1608C11.0203 20.2669 10.8325 20.3231 10.6407 20.3223C10.3884 20.3148 10.1484 20.2115 9.96956 20.0335C9.79069 19.8555 9.68632 19.6162 9.67765 19.364Z" fill="white"/>
<path d="M15.0109 25.1611C16.0559 25.1611 17.1053 25.1611 18.1504 25.1611C18.3576 25.1611 18.4052 25.2 18.3404 25.4072C18.287 25.613 18.1669 25.7953 17.999 25.9257C17.831 26.0561 17.6246 26.1272 17.4119 26.1281C15.8012 26.1281 14.1947 26.1281 12.5839 26.1281C12.3684 26.1231 12.1605 26.0466 11.9932 25.9106C11.8259 25.7747 11.7086 25.5869 11.6598 25.377C11.608 25.187 11.6598 25.1568 11.8325 25.1568L15.0109 25.1611Z" fill="white"/>
</g>
<defs>
<clipPath id="clip0_371_68">
<rect width="30" height="30" fill="white"/>
</clipPath>
</defs>
</svg>
